<?xml version="1.0" encoding="UTF-8"?>
<svg version="1.1" xmlns="http://www.w3.org/2000/svg" width="512" height="512">
<path d="M0 0 C1.81648293 -0.01029488 1.81648293 -0.01029488 3.66966248 -0.02079773 C6.96746339 -0.03588658 10.26490675 -0.03758042 13.56272721 -0.03185534 C16.32823717 -0.02874704 19.09369693 -0.03487431 21.8591997 -0.04089409 C28.39120232 -0.05490429 34.92307407 -0.05340841 41.45507812 -0.04199219 C48.16426594 -0.03052443 54.87305337 -0.04457173 61.58218843 -0.07138866 C67.36852521 -0.09363991 73.15473718 -0.10016167 78.94111365 -0.09431225 C82.38548513 -0.09096264 85.82960035 -0.09322259 89.27393532 -0.11056328 C93.12172338 -0.12553411 96.96864426 -0.11474934 100.81640625 -0.09765625 C102.49777176 -0.1121582 102.49777176 -0.1121582 104.21310425 -0.12695312 C115.84052372 -0.01945238 125.16290741 2.84792071 133.53979492 11.03686523 C142.87437118 21.75041298 142.75563218 36.06834152 142.71582031 49.52124023 C142.71596634 50.81963333 142.71611237 52.11802643 142.71626282 53.45576477 C142.71654825 56.99444843 142.71069268 60.5330978 142.70368886 64.07177353 C142.69741295 67.77799045 142.69684818 71.48420827 142.69566345 75.19042969 C142.69256259 82.19899073 142.68436606 89.20753606 142.67431396 96.2160902 C142.66101749 105.69360356 142.65564286 115.17112125 142.64981174 124.64864159 C142.64042527 139.56712372 142.62049806 154.48557272 142.60229492 169.40405273 C169.00229492 169.40405273 195.40229492 169.40405273 222.60229492 169.40405273 C222.5790918 159.95393555 222.55588867 150.50381836 222.53198242 140.76733398 C222.52175828 134.76537976 222.51204696 128.76343188 222.50463867 122.76147461 C222.49279616 113.24379304 222.4789148 103.72614703 222.45141602 94.20849609 C222.43139369 87.2751925 222.41855764 80.34191791 222.41411793 73.4085862 C222.41152543 69.74222133 222.40549284 66.07593935 222.39083481 62.40960121 C222.37455054 58.3026535 222.37432086 54.19584714 222.37524414 50.08886719 C222.36805359 48.89195755 222.36086304 47.69504791 222.35345459 46.46186829 C222.3861289 32.94978599 223.33671873 19.85063255 232.91479492 9.52905273 C241.83745034 1.30317735 252.13021234 0.10422133 263.78881836 0.11352539 C265.00112122 0.10680817 266.21342407 0.10009094 267.46246338 0.09317017 C270.77267629 0.07747352 274.08263821 0.07081781 277.3928709 0.06953859 C279.46627297 0.06811207 281.53964913 0.06383297 283.61304474 0.05854416 C290.86175696 0.04006615 298.11039587 0.03187054 305.35913086 0.03344727 C312.09100146 0.03464733 318.82255076 0.0135661 325.55434012 -0.01804006 C331.35419574 -0.04428969 337.15394699 -0.05491638 342.95386147 -0.05364192 C346.40886775 -0.05313472 349.86358833 -0.05868157 353.31853485 -0.07999802 C357.17854572 -0.10316541 361.03812457 -0.09380658 364.89819336 -0.08178711 C366.58966492 -0.09864563 366.58966492 -0.09864563 368.31530762 -0.11584473 C378.64897062 -0.03446115 388.52287137 2.55433032 396.15307617 9.89624023 C403.46857382 17.77446848 405.75991138 26.5382219 405.73372269 37.08164501 C405.73577532 37.85093992 405.73782795 38.62023483 405.73994279 39.41284171 C405.74561318 41.99978709 405.74415549 44.58667925 405.74273682 47.17362976 C405.74532043 49.0434781 405.74833358 50.91332589 405.75174022 52.78317291 C405.75981391 57.92888729 405.7616 63.07458774 405.76233768 68.22030771 C405.76418759 73.76716065 405.7717346 79.31400635 405.7784729 84.8608551 C405.79205926 96.99307396 405.79808138 109.12528952 405.80248356 121.25751472 C405.80524541 128.83157213 405.80948265 136.40562827 405.81398773 143.97968483 C405.82618068 164.94623444 405.8365154 185.91278336 405.83986282 206.87933636 C405.84008446 208.23499725 405.84030624 209.59065814 405.84052818 210.94631903 C405.84074882 212.30523953 405.8409693 213.66416003 405.84118962 215.02308053 C405.84163217 217.74927374 405.84207929 220.47546695 405.8425293 223.20166016 C405.84269338 224.215565 405.84269338 224.215565 405.84286078 225.24995276 C405.8464913 247.16647645 405.86241145 269.08296706 405.88571966 290.99947809 C405.91032157 314.17483889 405.9240291 337.35018152 405.92523074 360.52555782 C405.9261478 373.15726679 405.93190786 385.78893245 405.95005035 398.4206295 C405.96544388 409.17633232 405.97057619 419.93197843 405.96231225 430.68769016 C405.95840316 436.17545359 405.95934814 441.6631028 405.9733696 447.1508522 C405.98609264 452.17637465 405.98492493 457.20169686 405.97277889 462.22721896 C405.97081914 464.04352265 405.97391314 465.85984044 405.98262325 467.6761243 C406.0421429 480.92847083 405.22184318 491.75637548 396.60229492 502.40405273 C390.06130979 508.94503786 381.63443708 512.50793983 372.4185791 512.55122375 C370.84606888 512.56195671 370.84606888 512.56195671 369.24179077 512.57290649 C367.52435165 512.57693985 367.52435165 512.57693985 365.7722168 512.58105469 C363.95682907 512.59091148 363.95682907 512.59091148 362.10476685 512.60096741 C358.09352367 512.6207005 354.0823205 512.63237032 350.07104492 512.64233398 C348.68573487 512.64638401 347.30042501 512.65050101 345.91511536 512.65468407 C339.40108912 512.6737317 332.88707414 512.68795997 326.37302542 512.69629604 C318.87826459 512.70604757 311.38380074 512.73231392 303.88914442 512.77279693 C298.08170318 512.80307822 292.27434645 512.81777648 286.46682787 512.82107705 C283.00557793 512.82341515 279.54464536 512.83221095 276.08348083 512.85753822 C272.21140339 512.88541388 268.33970777 512.88095129 264.4675293 512.87402344 C263.33876373 512.8868335 262.20999817 512.89964355 261.04702759 512.9128418 C249.51998657 512.83809928 240.02477618 510.05437937 231.73120117 501.88061523 C222.18461622 490.77504669 222.29321923 476.41737695 222.37524414 462.44384766 C222.37581006 461.10204578 222.37548818 459.76024329 222.37435913 458.41844177 C222.37379166 454.82009677 222.38544638 451.22188854 222.39950705 447.62357497 C222.41211678 443.84665757 222.4131929 440.06973611 222.41555786 436.2928009 C222.42174282 429.1604282 222.43811269 422.02811773 222.45825684 414.89577228 C222.48491804 405.24385476 222.49561263 395.5919199 222.50726128 385.93997478 C222.52599588 370.7612876 222.56586123 355.58273167 222.60229492 340.40405273 C196.20229492 340.40405273 169.80229492 340.40405273 142.60229492 340.40405273 C142.62549805 350.08233398 142.64870117 359.76061523 142.67260742 369.73217773 C142.68283037 375.87540798 142.69254156 382.01863202 142.69995117 388.16186523 C142.71179832 397.90570186 142.72569283 407.64950379 142.75317383 417.39331055 C142.77318232 424.49104361 142.78602897 431.58874841 142.79047191 438.68650889 C142.79306673 442.44059041 142.7991144 446.19459108 142.81375504 449.94864655 C142.82745718 453.49118218 142.8314924 457.03360463 142.82851028 460.57616425 C142.82931204 462.47754876 142.84000694 464.37892132 142.85113525 466.28027344 C142.81767981 480.40582226 141.34664048 493.06507248 131.37963867 503.68530273 C122.81646537 511.96617362 112.46531943 512.85368432 101.07519531 512.80810547 C99.86245438 512.81496872 98.64971344 512.82183197 97.40022278 512.8289032 C94.10254793 512.84397489 90.80523139 512.8456912 87.50753713 512.83996081 C84.74188277 512.83685006 81.9762785 512.84298217 79.21063131 512.84899956 C72.68009124 512.86300031 66.14968211 512.86152069 59.61914062 512.85009766 C52.90934421 512.83861956 46.19994767 512.85269677 39.49020392 512.87949413 C33.70301335 512.90173114 27.91594757 512.90827064 22.12871736 512.90241772 C18.68383376 512.8990661 15.23920637 512.90134225 11.79435921 512.91866875 C7.94887041 512.9336207 4.10425148 512.92286924 0.25878906 512.90576172 C-0.86414551 512.91542969 -1.98708008 512.92509766 -3.14404297 512.93505859 C-13.78861127 512.83638316 -23.66517433 510.03483966 -31.39770508 502.40405273 C-40.63475679 491.27760408 -40.83499655 479.84851335 -40.78538513 466.08425903 C-40.78956031 464.20341896 -40.79503884 462.3225814 -40.80170494 460.4417485 C-40.81615403 455.2841514 -40.81191645 450.12671417 -40.80453813 444.96910834 C-40.79980746 439.40252671 -40.81231544 433.83597971 -40.82255554 428.26940918 C-40.83975086 417.36818997 -40.84058201 406.46702838 -40.83534264 395.56579913 C-40.83130105 386.7050222 -40.83274437 377.84426229 -40.8380909 368.98348618 C-40.83883932 367.72231681 -40.83958774 366.46114745 -40.84035884 365.16176083 C-40.84189032 362.59968567 -40.84342867 360.03761052 -40.84497381 357.47553538 C-40.85480236 340.27360541 -40.85896655 323.07168361 -40.85134792 305.86975288 C-40.85105075 305.19734015 -40.85075358 304.52492742 -40.8504474 303.83213854 C-40.84799856 298.37195893 -40.84538692 292.91177939 -40.84276326 287.45159986 C-40.83266176 266.15561019 -40.84101546 244.85969938 -40.86425781 223.5637207 C-40.89034069 199.6264759 -40.90312607 175.68928492 -40.89607006 151.75202072 C-40.89257654 139.08176785 -40.89481873 126.41157973 -40.91232109 113.74133682 C-40.9270358 102.95536181 -40.927688 92.16949714 -40.91025018 81.38352431 C-40.90173185 75.88140592 -40.89961117 70.37948472 -40.91490173 64.87737656 C-40.92873366 59.83771244 -40.92400465 54.79841472 -40.9046625 49.75877188 C-40.90089762 47.93853529 -40.90383848 46.11826945 -40.91427415 44.29805888 C-40.98386161 31.22802793 -40.1132342 19.24912225 -30.39770508 9.40405273 C-21.09203105 1.67858751 -11.84888273 -0.04732946 0 0 Z " fill="#FE623C" transform="translate(73.397705078125,-0.404052734375)"/>
</svg>
